<svg width="38" height="38" viewBox="0 0 38 38" fill="none" xmlns="http://www.w3.org/2000/svg">
<path d="M0 7.94545C0 3.5573 3.5573 0 7.94545 0H30.0545C34.4427 0 38 3.5573 38 7.94545V30.0545C38 34.4427 34.4427 38 30.0545 38H7.94545C3.5573 38 0 34.4427 0 30.0545V7.94545Z" fill="#277389"/>
<path d="M4.49091 11.1697C4.49091 6.78154 8.04821 3.22424 12.4364 3.22424H25.5636C29.9518 3.22424 33.5091 6.78154 33.5091 11.1697V26.3697C33.5091 30.7579 29.9518 34.3152 25.5636 34.3152H12.4364C8.04821 34.3152 4.49091 30.7579 4.49091 26.3697V11.1697Z" fill="#C5EBE5"/>
<path d="M30.6303 18.7697C30.6303 25.3201 25.449 30.6303 19.0576 30.6303C12.6661 30.6303 7.48485 25.3201 7.48485 18.7697C7.48485 12.2193 12.6661 6.90909 19.0576 6.90909C25.449 6.90909 30.6303 12.2193 30.6303 18.7697Z" fill="#555555"/>
<path d="M4.60606 17.9636H13.3576V20.1515H4.60606V17.9636Z" fill="#277389"/>
<path d="M14.2695 22.67L15.4004 23.8189L11.758 27.4042L10.6271 26.2553L14.2695 22.67Z" fill="#277389"/>
<path d="M15.4799 14.0678L14.3479 15.2156L10.7091 11.6266L11.8412 10.4788L15.4799 14.0678Z" fill="#277389"/>
<path d="M33.3284 17.9636H24.5769V20.1515H33.3284V17.9636Z" fill="#277389"/>
<path d="M23.6649 22.67L22.534 23.8189L26.1765 27.4042L27.3074 26.2553L23.6649 22.67Z" fill="#277389"/>
<path d="M22.4545 14.0678L23.5866 15.2156L27.2254 11.6266L26.0933 10.4788L22.4545 14.0678Z" fill="#277389"/>
<path d="M24.6424 19C24.6424 22.1162 22.1162 24.6424 19 24.6424C15.8838 24.6424 13.3576 22.1162 13.3576 19C13.3576 15.8838 15.8838 13.3576 19 13.3576C22.1162 13.3576 24.6424 15.8838 24.6424 19Z" fill="#C5EBE5"/>
<path d="M23.1455 19C23.1455 21.2895 21.2895 23.1455 19 23.1455C16.7105 23.1455 14.8545 21.2895 14.8545 19C14.8545 16.7105 16.7105 14.8545 19 14.8545C21.2895 14.8545 23.1455 16.7105 23.1455 19Z" fill="#C5EBE5"/>
<path d="M20.7273 18.7697C20.7273 19.7236 19.9539 20.497 19 20.497C18.0461 20.497 17.2727 19.7236 17.2727 18.7697C17.2727 17.8158 18.0461 17.0424 19 17.0424C19.9539 17.0424 20.7273 17.8158 20.7273 18.7697Z" fill="#555555"/>
<path d="M35.1212 4.54848C35.1212 5.27984 34.5283 5.87273 33.797 5.87273C33.0656 5.87273 32.4727 5.27984 32.4727 4.54848C32.4727 3.81713 33.0656 3.22424 33.797 3.22424C34.5283 3.22424 35.1212 3.81713 35.1212 4.54848Z" fill="#555555"/>
<path d="M5.64242 4.54848C5.64242 5.27984 5.04954 5.87273 4.31818 5.87273C3.58682 5.87273 2.99394 5.27984 2.99394 4.54848C2.99394 3.81713 3.58682 3.22424 4.31818 3.22424C5.04954 3.22424 5.64242 3.81713 5.64242 4.54848Z" fill="#555555"/>
<path d="M35.1212 33.797C35.1212 34.5283 34.5283 35.1212 33.797 35.1212C33.0656 35.1212 32.4727 34.5283 32.4727 33.797C32.4727 33.0656 33.0656 32.4727 33.797 32.4727C34.5283 32.4727 35.1212 33.0656 35.1212 33.797Z" fill="#555555"/>
<path d="M5.64242 33.797C5.64242 34.5283 5.04954 35.1212 4.31818 35.1212C3.58682 35.1212 2.99394 34.5283 2.99394 33.797C2.99394 33.0656 3.58682 32.4727 4.31818 32.4727C5.04954 32.4727 5.64242 33.0656 5.64242 33.797Z" fill="#555555"/>
<path d="M31.897 25.2182C31.897 24.9002 32.1547 24.6424 32.4727 24.6424H33.2788V29.5939H32.4727C32.1547 29.5939 31.897 29.3362 31.897 29.0182V25.2182Z" fill="#555555"/>
<path d="M33.2788 24.6424H34.2C34.518 24.6424 34.7758 24.9002 34.7758 25.2182V29.0182C34.7758 29.3362 34.518 29.5939 34.2 29.5939H33.2788V24.6424Z" fill="#555555"/>
<path d="M3.33939 24.4121C3.33939 24.0941 3.59717 23.8364 3.91515 23.8364H4.72121V28.7879H3.91515C3.59717 28.7879 3.33939 28.5301 3.33939 28.2121V24.4121Z" fill="#555555"/>
<path d="M4.72121 23.8364H5.64242C5.96041 23.8364 6.21818 24.0941 6.21818 24.4121V28.2121C6.21818 28.5301 5.96041 28.7879 5.64242 28.7879H4.72121V23.8364Z" fill="#555555"/>
<path d="M31.897 8.52121C31.897 8.20323 32.1547 7.94545 32.4727 7.94545H33.2788V12.897H32.4727C32.1547 12.897 31.897 12.6392 31.897 12.3212V8.52121Z" fill="#555555"/>
<path d="M33.2788 7.94545H34.2C34.518 7.94545 34.7758 8.20323 34.7758 8.52121V12.3212C34.7758 12.6392 34.518 12.897 34.2 12.897H33.2788V7.94545Z" fill="#555555"/>
<path d="M3.33939 8.52121C3.33939 8.20323 3.59717 7.94545 3.91515 7.94545H4.72121V12.897H3.91515C3.59717 12.897 3.33939 12.6392 3.33939 12.3212V8.52121Z" fill="#555555"/>
<path d="M4.72121 7.94545H5.64242C5.96041 7.94545 6.21818 8.20323 6.21818 8.52121V12.3212C6.21818 12.6392 5.96041 12.897 5.64242 12.897H4.72121V7.94545Z" fill="#555555"/>
</svg>
